<svg width="17" height="15" viewBox="0 0 17 15" fill="none" xmlns="http://www.w3.org/2000/svg">
<path d="M8.39874 11.4841L9.3532 12.8476C9.04865 12.8763 8.74292 12.8907 8.43703 12.8908C4.92697 12.8908 1.84614 11.0173 0.194233 8.21411C0.0667469 7.99778 -0.000488281 7.75126 -0.000488281 7.50016C-0.000488281 7.24906 0.0667469 7.00254 0.194233 6.78621C0.898031 5.5919 1.86161 4.56624 3.00744 3.7822L4.67961 6.17104C4.53281 6.5867 4.45265 7.03398 4.45265 7.50018C4.45265 9.68971 6.21442 11.4635 8.39874 11.4841ZM16.6798 8.21411C15.7521 9.78844 14.3728 11.0694 12.7196 11.8901L12.7199 11.8906L13.9349 13.625C14.1575 13.9431 14.0802 14.3814 13.762 14.6041L13.3779 14.873C13.0598 15.0957 12.6215 15.0183 12.3988 14.7001L2.93917 1.37537C2.71652 1.05721 2.79386 0.618928 3.11203 0.396272L3.49611 0.127326C3.81427 -0.09533 4.25255 -0.0179862 4.47521 0.300178L5.97046 2.42763C6.75773 2.22018 7.58463 2.10955 8.43703 2.10955C11.9471 2.10955 15.0279 3.98306 16.6798 6.78624C16.8073 7.00257 16.8745 7.24909 16.8745 7.50018C16.8745 7.75127 16.8073 7.99778 16.6798 8.21411ZM12.4214 7.50018C12.4214 5.29781 10.639 3.5158 8.43703 3.5158C7.91147 3.5158 7.40999 3.61755 6.95082 3.80209L7.51623 4.59481C8.27411 4.35542 9.12884 4.41425 9.87169 4.8119H9.87082C9.17794 4.8119 8.61632 5.37352 8.61632 6.06639C8.61632 6.75856 9.17727 7.32088 9.87082 7.32088C10.5637 7.32088 11.1253 6.75926 11.1253 6.06639V6.06551C11.6662 7.07596 11.6032 8.34815 10.8836 9.316V9.31629L11.4494 10.1091C12.0551 9.41033 12.4214 8.49844 12.4214 7.50018ZM7.67572 10.4512L5.40433 7.20633C5.25744 8.74111 6.26314 10.0878 7.67572 10.4512Z" fill="#AFBAC8"/>
</svg>
