<svg width="243" height="232" viewBox="0 0 243 232" fill="none" xmlns="http://www.w3.org/2000/svg">
<path d="M139.16 51.1476C156.16 49.4076 173.295 52.7479 188.396 60.7459C203.498 68.7439 215.889 81.0405 224.002 96.0808C232.115 111.121 235.587 128.229 233.977 145.242C232.367 162.255 225.748 178.409 214.957 191.66C204.167 204.911 189.689 214.665 173.355 219.688C157.021 224.711 139.564 224.778 123.192 219.88C106.82 214.982 92.2684 205.339 81.3769 192.17C70.4854 179.002 63.7434 162.899 62.0034 145.899L119.868 139.977C120.436 145.532 122.64 150.795 126.199 155.098C129.758 159.402 134.514 162.553 139.864 164.154C145.215 165.754 150.919 165.733 156.257 164.091C161.595 162.449 166.327 159.262 169.853 154.931C173.379 150.601 175.542 145.322 176.069 139.762C176.595 134.202 175.46 128.611 172.809 123.696C170.158 118.781 166.108 114.763 161.173 112.149C156.238 109.535 150.638 108.443 145.083 109.012L139.16 51.1476Z" fill="#F8976C"/>
<path opacity="0.5" d="M8.30961 97.8067C7.21837 87.145 8.2378 76.3728 11.3097 66.1051C14.3816 55.8373 19.4458 46.2752 26.2131 37.9646C32.9804 29.654 41.3184 22.7578 50.7509 17.6696C60.1835 12.5813 70.5258 9.40081 81.1875 8.30958L89.4971 89.4971L8.30961 97.8067Z" fill="#F8976C"/>
</svg>
