<svg width="173" height="174" viewBox="0 0 173 174" fill="none" xmlns="http://www.w3.org/2000/svg">
<path d="M77.16 1.14761C94.1602 -0.592366 111.294 2.74785 126.396 10.7459C141.498 18.7439 153.889 31.0405 162.002 46.0808C170.115 61.121 173.586 78.2293 171.976 95.2422C170.366 112.255 163.748 128.409 152.957 141.66C142.167 154.911 127.689 164.665 111.355 169.688C95.0208 174.711 77.564 174.778 61.1921 169.88C44.8201 164.982 30.2683 155.339 19.3768 142.17C8.4853 129.002 1.74328 112.899 0.00329748 95.8993L57.8677 89.9768C58.4364 95.5325 60.6397 100.795 64.199 105.098C67.7583 109.402 72.5138 112.553 77.8642 114.154C83.2145 115.754 88.9194 115.733 94.2573 114.091C99.5953 112.449 104.327 109.262 107.853 104.931C111.379 100.601 113.542 95.3219 114.068 89.7621C114.595 84.2023 113.46 78.6113 110.809 73.6962C108.157 68.781 104.108 64.7625 99.1729 62.1488C94.2376 59.535 88.6381 58.4434 83.0825 59.0121L77.16 1.14761Z" fill="#F8976C"/>
</svg>
