<svg width="17" height="11" viewBox="0 0 17 11" fill="none" xmlns="http://www.w3.org/2000/svg">
<path d="M16.6803 4.78606C15.0284 1.98288 11.9476 0.109375 8.43751 0.109375C4.92599 0.109375 1.84583 1.9842 0.194721 4.78606C0.0672352 5.00239 0 5.24891 0 5.50001C0 5.75111 0.0672352 5.99763 0.194721 6.21396C1.84663 9.01712 4.92746 10.8906 8.43751 10.8906C11.949 10.8906 15.0292 9.0158 16.6803 6.21394C16.8078 5.99761 16.875 5.7511 16.875 5.5C16.875 5.2489 16.8078 5.00239 16.6803 4.78606ZM8.43751 9.48438C6.2355 9.48438 4.45314 7.70233 4.45314 5.5C4.45314 3.29799 6.23515 1.51562 8.43751 1.51562C10.6395 1.51562 12.4219 3.29764 12.4219 5.5C12.4219 7.70201 10.6399 9.48438 8.43751 9.48438ZM11.4844 5.5C11.4844 7.18275 10.1203 8.54688 8.43751 8.54688C6.75476 8.54688 5.39064 7.18275 5.39064 5.5C5.39064 4.98121 5.52045 4.4928 5.74911 4.06524L5.74909 4.06618C5.74909 4.75908 6.3108 5.32076 7.0037 5.32076C7.6966 5.32076 8.25831 4.75905 8.25831 4.06618C8.25831 3.37328 7.6966 2.81157 7.0037 2.81157L7.00276 2.8116C7.43032 2.58294 7.91873 2.45312 8.43751 2.45312C10.1203 2.45312 11.4844 3.81725 11.4844 5.5Z" fill="#AFBAC8"/>
</svg>
